<?xml version="1.0" encoding="utf-8"?>
<!-- Generator: Adobe Illustrator 24.1.2, SVG Export Plug-In . SVG Version: 6.00 Build 0)  -->
<svg version="1.1" id="Layer_1" xmlns="http://www.w3.org/2000/svg" xmlns:xlink="http://www.w3.org/1999/xlink" x="0px" y="0px"
	 viewBox="0 0 256 256" style="enable-background:new 0 0 256 256;" xml:space="preserve">
<style type="text/css">
	.st0{fill:#B9E769;}
	.st1{fill:#54478C;}
</style>
<circle class="st0" cx="128.23" cy="127.96" r="81"/>
<path class="st1" d="M149.91,98.97h-42.28c-3.32,0-6.12,2.46-6.54,5.75l-6.76,52.65c-0.51,3.94,2.56,7.43,6.54,7.43h55.86
	c3.98,0,7.05-3.5,6.54-7.44l-6.82-52.65C156.02,101.43,153.23,98.97,149.91,98.97z"/>
<g>
	<path class="st1" d="M112.23,98.96c0-8.84,7.16-16,16-16"/>
	<g>
		<path class="st1" d="M115.23,98.96c0.19-7.24,5.76-12.81,13-13c3.85-0.1,3.87-6.1,0-6c-10.55,0.28-18.72,8.45-19,19
			C109.13,102.82,115.13,102.82,115.23,98.96L115.23,98.96z"/>
	</g>
</g>
<g>
	<path class="st1" d="M129.11,82.96c8.84,0,16,7.33,16,16.4"/>
	<g>
		<path class="st1" d="M129.11,85.96c7.41,0.21,12.8,6.1,13,13.4c0.1,3.85,6.11,3.87,6,0c-0.29-10.61-8.28-19.09-19-19.4
			C125.25,79.85,125.25,85.85,129.11,85.96L129.11,85.96z"/>
	</g>
</g>
</svg>
